<?xml version="1.0" encoding="UTF-8" standalone="no"?>
<!-- Created with Inkscape (http://www.inkscape.org/) -->

<svg
   xmlns:dc="http://purl.org/dc/elements/1.1/"
   xmlns:cc="http://creativecommons.org/ns#"
   xmlns:rdf="http://www.w3.org/1999/02/22-rdf-syntax-ns#"
   xmlns:svg="http://www.w3.org/2000/svg"
   xmlns="http://www.w3.org/2000/svg"
   xmlns:sodipodi="http://sodipodi.sourceforge.net/DTD/sodipodi-0.dtd"
   xmlns:inkscape="http://www.inkscape.org/namespaces/inkscape"
   width="512"
   height="512"
   id="svg2"
   version="1.1"
   inkscape:version="0.48.1 r9760"
   sodipodi:docname="progress.svg"
   inkscape:export-filename="/home/michal/projects/sources/builder/icons/build.mng.png"
   inkscape:export-xdpi="90"
   inkscape:export-ydpi="90">
  <title
     id="title3017">Progress</title>
  <defs
     id="defs4" />
  <sodipodi:namedview
     id="base"
     pagecolor="#ffffff"
     bordercolor="#666666"
     borderopacity="1.0"
     inkscape:pageopacity="0.0"
     inkscape:pageshadow="2"
     inkscape:zoom="0.7"
     inkscape:cx="-171.71428"
     inkscape:cy="228.89858"
     inkscape:document-units="px"
     inkscape:current-layer="svg2"
     showgrid="true"
     inkscape:window-width="1280"
     inkscape:window-height="978"
     inkscape:window-x="-5"
     inkscape:window-y="0"
     inkscape:window-maximized="1">
    <inkscape:grid
       type="xygrid"
       id="grid3803"
       units="px"
       empspacing="2"
       visible="true"
       enabled="true"
       snapvisiblegridlinesonly="true"
       spacingy="64px"
       spacingx="64px" />
  </sodipodi:namedview>
  <metadata
     id="metadata7">
    <rdf:RDF>
      <cc:Work
         rdf:about="">
        <dc:format>image/svg+xml</dc:format>
        <dc:type
           rdf:resource="http://purl.org/dc/dcmitype/StillImage" />
        <dc:title>Progress</dc:title>
        <dc:date>07.06.2011</dc:date>
        <dc:creator>
          <cc:Agent>
            <dc:title>Michał Walenciak</dc:title>
          </cc:Agent>
        </dc:creator>
      </cc:Work>
    </rdf:RDF>
  </metadata>
  <g
     id="g3153">
    <animateTransform
       attributeName="transform"
       type="rotate"
       dur="5s"
       from="0 256 256"
       to="360 256 256"
       repeatCount="indefinite"
       id="animateTransform3084" />
    <path
       style="fill:#ffffff"
       d="M 5.0437786e-6,256 4.0569312e-6,3.2425905e-5 256,3.3100343e-5 512,3.377478e-5 512,256.00001 l 0,255.99997 -256,0 -255.9999939693739,0 L 5.0437786e-6,256 z"
       id="path3345"
       inkscape:connector-curvature="0" />
    <path
       id="path3069"
       d="m 243.9917,506.26285 c -3.19133,-3.84532 -4.37921,-23.10127 -3.60233,-58.39669 0.98762,-44.87324 2.22745,-53.33231 8.38483,-57.20947 5.26282,-3.31392 9.18879,-3.31392 14.45161,0 6.15738,3.87716 7.3972,12.33623 8.38482,57.20947 1.19924,54.48505 -1.14935,64.13382 -15.61063,64.13382 -3.98579,0 -9.38954,-2.58172 -12.0083,-5.73713 z"
       style="fill:#fefefe" />
    <path
       id="path3067"
       d="m 124.69678,474.01288 c -8.13762,-8.13762 -5.49962,-15.72178 21.25551,-61.10967 21.03759,-35.68854 27.28882,-43.35483 35.3522,-43.35483 18.90353,0 20.37376,12.12754 4.89687,40.39287 -35.74107,65.27359 -47.77076,77.80541 -61.50458,64.07163 z"
       style="fill:#fefefe" />
    <path
       id="path3065"
       d="M 353.61833,457.29031 C 322.33175,408.01229 311.49742,384.6627 316.32099,376.909 c 2.51846,-4.04835 8.98701,-7.36062 14.37453,-7.36062 8.06338,0 14.31461,7.66629 35.35219,43.35483 26.75514,45.38789 29.39314,52.97205 21.25552,61.10967 -9.95547,9.95547 -19.87291,5.03201 -33.6849,-16.72257 z"
       style="fill:#fefefe" />
    <path
       id="path3063"
       d="m 37.987102,387.30322 c -13.733781,-13.73383 -1.201962,-25.76355 64.071638,-61.50458 28.26533,-15.47689 40.39288,-14.00666 40.39288,4.89687 0,8.06338 -7.6663,14.31461 -43.354842,35.35219 -45.387891,26.75514 -52.972056,29.39314 -61.109676,21.25552 z"
       style="fill:#fefefe" />
    <path
       id="path3061"
       d="m 412.90323,366.0477 c -35.68855,-21.03758 -43.35484,-27.28881 -43.35484,-35.35219 0,-18.90353 12.12754,-20.37376 40.39287,-4.89686 65.2736,35.74102 77.80542,47.77075 64.07164,61.50457 -8.13762,8.13762 -15.72178,5.49962 -61.10967,-21.25552 z"
       style="fill:#fefefe" />
    <path
       id="path3059"
       d="M 5.0681444,267.67459 C 2.280676,264.88713 5.0572299e-6,259.48945 5.0425441e-6,255.67976 4.9881295e-6,241.56396 9.9306165,239.19637 64.133826,240.38937 c 44.873244,0.98763 53.332314,2.22745 57.209474,8.38483 3.31396,5.2629 3.31384,9.1887 -4.5e-4,14.45161 -3.88414,6.16782 -12.35849,7.39353 -57.878464,8.37136 -37.968392,0.81561 -54.7878391,-0.31422 -58.3962416,-3.92258 z"
       style="fill:#fefefe" />
    <path
       id="path3057"
       d="m 393.19717,267.67459 c -2.78747,-2.78746 -5.06814,-8.18514 -5.06814,-11.99483 0,-14.1158 9.93061,-16.48339 64.13382,-15.29039 44.87325,0.98763 53.33232,2.22745 57.20948,8.38483 3.31396,5.2629 3.31384,9.18871 -4.6e-4,14.45161 -3.88414,6.16782 -12.35848,7.39353 -57.87846,8.37137 -37.96839,0.8156 -54.78784,-0.31422 -58.39624,-3.92259 z"
       style="fill:#fefefe" />
    <path
       id="path3055"
       d="m 79.270362,173.24595 c -43.491137,-25.60033 -50.725284,-33.07123 -43.35587,-44.77489 7.399184,-11.75098 15.477883,-9.56916 60.747808,16.40617 45.39351,26.04626 52.31286,32.9033 44.9925,44.58723 -7.60663,12.14084 -19.42648,9.06793 -62.384438,-16.21851 z"
       style="fill:#fefefe" />
    <path
       id="path3053"
       d="m 371.77753,192.19837 c -9.99825,-12.04715 -1.97566,-20.81895 42.7854,-46.7809 45.6806,-26.49529 54.05717,-28.8026 61.52258,-16.94641 7.37404,11.71101 0.12594,19.18204 -43.35587,44.68884 -44.74868,26.25003 -52.86346,28.78468 -60.95211,19.03847 z"
       style="fill:#fefefe" />
    <path
       id="path3051"
       d="m 170.35446,139.35486 c -11.91961,-15.09323 -50.79858,-87.834172 -49.76008,-93.099059 1.67267,-8.479917 13.19308,-15.05507 21.0773,-12.029646 7.484,2.871907 56.41939,84.296745 56.48108,93.980315 0.0896,14.05712 -19.34568,21.85154 -27.7983,11.14839 z"
       style="fill:#fefefe" />
    <path
       id="path3049"
       d="m 318.91951,139.71945 c -8.5499,-8.5499 -6.01922,-16.22932 19.9206,-60.449149 25.50681,-43.481719 32.97784,-50.729904 44.68885,-43.355866 11.85565,7.465083 9.54934,15.840659 -16.95348,61.567621 -26.23545,45.265754 -35.98587,53.907484 -47.65597,42.237394 z"
       style="fill:#fefefe" />
    <path
       id="path3343"
       d="m 243.9917,118.13378 c -3.19133,-3.84533 -4.37921,-23.101272 -3.60233,-58.39669 0.98762,-44.873244 2.22745,-53.3323093 8.38482,-57.2094701 5.26283,-3.31391962 9.18879,-3.31391961 14.45162,0 6.15737,3.8771609 7.3972,12.3362261 8.38482,57.2094701 1.19924,54.48505 -1.14935,64.13381 -15.61063,64.13381 -3.9858,0 -9.38954,-2.58171 -12.0083,-5.73712 z"
       style="fill:#fefefe" />
    <path
       id="path3091"
       d="m 243.9917,506.26285 c -3.19133,-3.84532 -4.37921,-23.10127 -3.60233,-58.39669 0.98762,-44.87324 2.22745,-53.33231 8.38483,-57.20947 5.26282,-3.31392 9.18879,-3.31392 14.45161,0 6.15738,3.87716 7.3972,12.33623 8.38482,57.20947 1.19924,54.48505 -1.14935,64.13382 -15.61063,64.13382 -3.98579,0 -9.38954,-2.58172 -12.0083,-5.73713 z"
       style="fill:#dcdcdc" />
    <path
       id="path3089"
       d="m 124.69678,474.01288 c -8.13762,-8.13762 -5.49962,-15.72178 21.25551,-61.10967 21.03759,-35.68854 27.28882,-43.35483 35.3522,-43.35483 18.90353,0 20.37376,12.12754 4.89687,40.39287 -35.74107,65.27359 -47.77076,77.80541 -61.50458,64.07163 z"
       style="fill:#dcdcdc" />
    <path
       id="path3087"
       d="M 353.61833,457.29031 C 322.33175,408.01229 311.49742,384.6627 316.32099,376.909 c 2.51846,-4.04835 8.98701,-7.36062 14.37453,-7.36062 8.06338,0 14.31461,7.66629 35.35219,43.35483 26.75514,45.38789 29.39314,52.97205 21.25552,61.10967 -9.95547,9.95547 -19.87291,5.03201 -33.6849,-16.72257 z"
       style="fill:#dcdcdc" />
    <path
       id="path3085"
       d="m 37.987102,387.30322 c -13.733781,-13.73383 -1.201962,-25.76355 64.071638,-61.50458 28.26533,-15.47689 40.39288,-14.00666 40.39288,4.89687 0,8.06338 -7.6663,14.31461 -43.354842,35.35219 -45.387891,26.75514 -52.972056,29.39314 -61.109676,21.25552 z"
       style="fill:#dcdcdc" />
    <path
       id="path3083"
       d="m 412.90323,366.0477 c -35.68855,-21.03758 -43.35484,-27.28881 -43.35484,-35.35219 0,-18.90353 12.12754,-20.37376 40.39287,-4.89686 65.2736,35.74102 77.80542,47.77075 64.07164,61.50457 -8.13762,8.13762 -15.72178,5.49962 -61.10967,-21.25552 z"
       style="fill:#dcdcdc" />
    <path
       id="path3081"
       d="M 5.0681444,267.67459 C 2.280676,264.88713 5.0572299e-6,259.48945 5.0425441e-6,255.67976 4.9881295e-6,241.56396 9.9306165,239.19637 64.133826,240.38937 c 44.873244,0.98763 53.332314,2.22745 57.209474,8.38483 3.31396,5.2629 3.31384,9.1887 -4.5e-4,14.45161 -3.88414,6.16782 -12.35849,7.39353 -57.878464,8.37136 -37.968392,0.81561 -54.7878391,-0.31422 -58.3962416,-3.92258 z"
       style="fill:#dcdcdc" />
    <path
       id="path3079"
       d="m 393.19717,267.67459 c -2.78747,-2.78746 -5.06814,-8.18514 -5.06814,-11.99483 0,-14.1158 9.93061,-16.48339 64.13382,-15.29039 44.87325,0.98763 53.33232,2.22745 57.20948,8.38483 3.31396,5.2629 3.31384,9.18871 -4.6e-4,14.45161 -3.88414,6.16782 -12.35848,7.39353 -57.87846,8.37137 -37.96839,0.8156 -54.78784,-0.31422 -58.39624,-3.92259 z"
       style="fill:#dcdcdc" />
    <path
       id="path3077"
       d="m 79.270362,173.24595 c -43.491137,-25.60033 -50.725284,-33.07123 -43.35587,-44.77489 7.399184,-11.75098 15.477883,-9.56916 60.747808,16.40617 45.39351,26.04626 52.31286,32.9033 44.9925,44.58723 -7.60663,12.14084 -19.42648,9.06793 -62.384438,-16.21851 z"
       style="fill:#dcdcdc" />
    <path
       id="path3075"
       d="m 371.77753,192.19837 c -9.99825,-12.04715 -1.97566,-20.81895 42.7854,-46.7809 45.6806,-26.49529 54.05717,-28.8026 61.52258,-16.94641 7.37404,11.71101 0.12594,19.18204 -43.35587,44.68884 -44.74868,26.25003 -52.86346,28.78468 -60.95211,19.03847 z"
       style="fill:#dcdcdc" />
    <path
       id="path3073"
       d="m 170.35446,139.35486 c -11.91961,-15.09323 -50.79858,-87.834172 -49.76008,-93.099059 1.67267,-8.479917 13.19308,-15.05507 21.0773,-12.029646 7.484,2.871907 56.41939,84.296745 56.48108,93.980315 0.0896,14.05712 -19.34568,21.85154 -27.7983,11.14839 z"
       style="fill:#dcdcdc" />
    <path
       id="path3341"
       d="m 318.91951,139.71945 c -8.5499,-8.5499 -6.01922,-16.22932 19.9206,-60.449149 25.50681,-43.481719 32.97784,-50.729904 44.68885,-43.355866 11.85565,7.465083 9.54934,15.840659 -16.95348,61.567621 -26.23545,45.265754 -35.98587,53.907484 -47.65597,42.237394 z"
       style="fill:#dcdcdc" />
    <path
       id="path3133"
       d="m 243.9917,506.26285 c -3.19133,-3.84532 -4.37921,-23.10127 -3.60233,-58.39669 0.98762,-44.87324 2.22745,-53.33231 8.38483,-57.20947 5.26282,-3.31392 9.18879,-3.31392 14.45161,0 6.15738,3.87716 7.3972,12.33623 8.38482,57.20947 1.19924,54.48505 -1.14935,64.13382 -15.61063,64.13382 -3.98579,0 -9.38954,-2.58172 -12.0083,-5.73713 z"
       style="fill:#bababa" />
    <path
       id="path3131"
       d="m 124.69678,474.01288 c -8.13762,-8.13762 -5.49962,-15.72178 21.25551,-61.10967 21.03759,-35.68854 27.28882,-43.35483 35.3522,-43.35483 18.90353,0 20.37376,12.12754 4.89687,40.39287 -35.74107,65.27359 -47.77076,77.80541 -61.50458,64.07163 z"
       style="fill:#bababa" />
    <path
       id="path3129"
       d="M 353.61833,457.29031 C 322.33175,408.01229 311.49742,384.6627 316.32099,376.909 c 2.51846,-4.04835 8.98701,-7.36062 14.37453,-7.36062 8.06338,0 14.31461,7.66629 35.35219,43.35483 26.75514,45.38789 29.39314,52.97205 21.25552,61.10967 -9.95547,9.95547 -19.87291,5.03201 -33.6849,-16.72257 z"
       style="fill:#bababa" />
    <path
       id="path3127"
       d="m 37.987102,387.30322 c -13.733781,-13.73383 -1.201962,-25.76355 64.071638,-61.50458 28.26533,-15.47689 40.39288,-14.00666 40.39288,4.89687 0,8.06338 -7.6663,14.31461 -43.354842,35.35219 -45.387891,26.75514 -52.972056,29.39314 -61.109676,21.25552 z"
       style="fill:#bababa" />
    <path
       id="path3125"
       d="m 412.90323,366.0477 c -35.68855,-21.03758 -43.35484,-27.28881 -43.35484,-35.35219 0,-18.90353 12.12754,-20.37376 40.39287,-4.89686 65.2736,35.74102 77.80542,47.77075 64.07164,61.50457 -8.13762,8.13762 -15.72178,5.49962 -61.10967,-21.25552 z"
       style="fill:#bababa" />
    <path
       id="path3123"
       d="M 5.0681444,267.67459 C 2.280676,264.88713 5.0572299e-6,259.48945 5.0425441e-6,255.67976 4.9881295e-6,241.56396 9.9306165,239.19637 64.133826,240.38937 c 44.873244,0.98763 53.332314,2.22745 57.209474,8.38483 3.31396,5.2629 3.31384,9.1887 -4.5e-4,14.45161 -3.88414,6.16782 -12.35849,7.39353 -57.878464,8.37136 -37.968392,0.81561 -54.7878391,-0.31422 -58.3962416,-3.92258 z"
       style="fill:#bababa" />
    <path
       id="path3121"
       d="m 393.19717,267.67459 c -2.78747,-2.78746 -5.06814,-8.18514 -5.06814,-11.99483 0,-14.1158 9.93061,-16.48339 64.13382,-15.29039 44.87325,0.98763 53.33232,2.22745 57.20948,8.38483 3.31396,5.2629 3.31384,9.18871 -4.6e-4,14.45161 -3.88414,6.16782 -12.35848,7.39353 -57.87846,8.37137 -37.96839,0.8156 -54.78784,-0.31422 -58.39624,-3.92259 z"
       style="fill:#bababa" />
    <path
       id="path3119"
       d="m 79.270362,173.24595 c -43.491137,-25.60033 -50.725284,-33.07123 -43.35587,-44.77489 7.399184,-11.75098 15.477883,-9.56916 60.747808,16.40617 45.39351,26.04626 52.31286,32.9033 44.9925,44.58723 -7.60663,12.14084 -19.42648,9.06793 -62.384438,-16.21851 z"
       style="fill:#bababa" />
    <path
       id="path3117"
       d="m 371.77753,192.19837 c -9.99825,-12.04715 -1.97566,-20.81895 42.7854,-46.7809 45.6806,-26.49529 54.05717,-28.8026 61.52258,-16.94641 7.37404,11.71101 0.12594,19.18204 -43.35587,44.68884 -44.74868,26.25003 -52.86346,28.78468 -60.95211,19.03847 z"
       style="fill:#bababa" />
    <path
       id="path3339"
       d="m 318.91951,139.71953 c -8.5499,-8.5499 -6.01922,-16.22932 19.9206,-60.449147 25.50681,-43.481719 32.97784,-50.729904 44.68885,-43.355866 11.85565,7.465083 9.54934,15.840659 -16.95348,61.567622 -26.23545,45.265751 -35.98587,53.907481 -47.65597,42.237391 z"
       style="fill:#bababa" />
    <path
       id="path3151"
       d="m 243.9917,506.26285 c -3.19133,-3.84532 -4.37921,-23.10127 -3.60233,-58.39669 0.98762,-44.87324 2.22745,-53.33231 8.38483,-57.20947 5.26282,-3.31392 9.18879,-3.31392 14.45161,0 6.15738,3.87716 7.3972,12.33623 8.38482,57.20947 1.19924,54.48505 -1.14935,64.13382 -15.61063,64.13382 -3.98579,0 -9.38954,-2.58172 -12.0083,-5.73713 z"
       style="fill:#989898" />
    <path
       id="path3149"
       d="m 124.69678,474.01288 c -8.13762,-8.13762 -5.49962,-15.72178 21.25551,-61.10967 21.03759,-35.68854 27.28882,-43.35483 35.3522,-43.35483 18.90353,0 20.37376,12.12754 4.89687,40.39287 -35.74107,65.27359 -47.77076,77.80541 -61.50458,64.07163 z"
       style="fill:#989898" />
    <path
       id="path3147"
       d="M 353.61833,457.29031 C 322.33175,408.01229 311.49742,384.6627 316.32099,376.909 c 2.51846,-4.04835 8.98701,-7.36062 14.37453,-7.36062 8.06338,0 14.31461,7.66629 35.35219,43.35483 26.75514,45.38789 29.39314,52.97205 21.25552,61.10967 -9.95547,9.95547 -19.87291,5.03201 -33.6849,-16.72257 z"
       style="fill:#989898" />
    <path
       id="path3145"
       d="m 37.987102,387.30322 c -13.733781,-13.73383 -1.201962,-25.76355 64.071638,-61.50458 28.26533,-15.47689 40.39288,-14.00666 40.39288,4.89687 0,8.06338 -7.6663,14.31461 -43.354842,35.35219 -45.387891,26.75514 -52.972056,29.39314 -61.109676,21.25552 z"
       style="fill:#989898" />
    <path
       id="path3143"
       d="m 412.90323,366.0477 c -35.68855,-21.03758 -43.35484,-27.28881 -43.35484,-35.35219 0,-18.90353 12.12754,-20.37376 40.39287,-4.89686 65.2736,35.74102 77.80542,47.77075 64.07164,61.50457 -8.13762,8.13762 -15.72178,5.49962 -61.10967,-21.25552 z"
       style="fill:#989898" />
    <path
       id="path3141"
       d="M 5.0681444,267.67459 C 2.280676,264.88713 5.0572299e-6,259.48945 5.0425441e-6,255.67976 4.9881295e-6,241.56396 9.9306165,239.19637 64.133826,240.38937 c 44.873244,0.98763 53.332314,2.22745 57.209474,8.38483 3.31396,5.2629 3.31384,9.1887 -4.5e-4,14.45161 -3.88414,6.16782 -12.35849,7.39353 -57.878464,8.37136 -37.968392,0.81561 -54.7878391,-0.31422 -58.3962416,-3.92258 z"
       style="fill:#989898" />
    <path
       id="path3139"
       d="m 393.19717,267.67459 c -2.78747,-2.78746 -5.06814,-8.18514 -5.06814,-11.99483 0,-14.1158 9.93061,-16.48339 64.13382,-15.29039 44.87325,0.98763 53.33232,2.22745 57.20948,8.38483 3.31396,5.2629 3.31384,9.18871 -4.6e-4,14.45161 -3.88414,6.16782 -12.35848,7.39353 -57.87846,8.37137 -37.96839,0.8156 -54.78784,-0.31422 -58.39624,-3.92259 z"
       style="fill:#989898" />
    <path
       id="path3137"
       d="m 371.77753,192.19837 c -9.99825,-12.04715 -1.97566,-20.81895 42.7854,-46.7809 45.6806,-26.49529 54.05717,-28.8026 61.52258,-16.94641 7.37404,11.71101 0.12594,19.18204 -43.35587,44.68884 -44.74868,26.25003 -52.86346,28.78468 -60.95211,19.03847 z"
       style="fill:#989898" />
    <path
       id="path3337"
       d="m 318.91951,139.71953 c -8.5499,-8.5499 -6.01922,-16.22932 19.9206,-60.449147 25.50681,-43.481719 32.97784,-50.729904 44.68885,-43.355866 11.85565,7.465083 9.54934,15.840659 -16.95348,61.567622 -26.23545,45.265751 -35.98587,53.907481 -47.65597,42.237391 z"
       style="fill:#989898" />
  </g>
</svg>
