<?xml version="1.0" encoding="UTF-8" standalone="no"?>
<!-- Created with Inkscape (http://www.inkscape.org/) -->

<svg
   xmlns:dc="http://purl.org/dc/elements/1.1/"
   xmlns:cc="http://creativecommons.org/ns#"
   xmlns:rdf="http://www.w3.org/1999/02/22-rdf-syntax-ns#"
   xmlns:svg="http://www.w3.org/2000/svg"
   xmlns="http://www.w3.org/2000/svg"
   xmlns:sodipodi="http://sodipodi.sourceforge.net/DTD/sodipodi-0.dtd"
   xmlns:inkscape="http://www.inkscape.org/namespaces/inkscape"
   width="512"
   height="512"
   id="svg2"
   version="1.1"
   inkscape:version="0.48.1 r9760"
   sodipodi:docname="progress.svg">
  <metadata
     id="metadata52">
    <rdf:RDF>
      <cc:Work
         rdf:about="">
        <dc:format>image/svg+xml</dc:format>
        <dc:type
           rdf:resource="http://purl.org/dc/dcmitype/StillImage" />
        <dc:title>Progress</dc:title>
        <dc:creator>
          <cc:Agent>
            <dc:title>Michał Walenciak</dc:title>
          </cc:Agent>
        </dc:creator>
      </cc:Work>
    </rdf:RDF>
  </metadata>
  <sodipodi:namedview
     pagecolor="#ffffff"
     bordercolor="#666666"
     borderopacity="1"
     objecttolerance="10"
     gridtolerance="10"
     guidetolerance="10"
     inkscape:pageopacity="0"
     inkscape:pageshadow="2"
     inkscape:window-width="1680"
     inkscape:window-height="972"
     id="namedview50"
     showgrid="true"
     inkscape:zoom="1.0742187"
     inkscape:cx="201.70067"
     inkscape:cy="281.66878"
     inkscape:window-x="-5"
     inkscape:window-y="-7"
     inkscape:window-maximized="1"
     inkscape:current-layer="g3153">
    <inkscape:grid
       type="xygrid"
       id="grid3029"
       units="px"
       empspacing="8"
       visible="true"
       enabled="true"
       snapvisiblegridlinesonly="true"
       spacingx="1px"
       spacingy="1px" />
  </sodipodi:namedview>
  <title
     id="title3017">Progress</title>
  <defs
     id="defs4" />
  <g
     id="g3153">
    <animateTransform
       attributeName="transform"
       type="rotate"
       dur="4s"
       repeatCount="indefinite"
       values="0 256 256; 30 256 256; 60 256 256; 90 256 256; 120 256 256; 150 256 256; 180 256 256; 210 256 256; 240 256 256; 270 256 256; 300 256 256; 330 256 256"
       calcMode="discrete"
       id="animateTransform3084" />
    <path
       style="fill:none"
       d="M 5.0437786e-6,256 4.0569312e-6,3.2425905e-5 256,3.3100343e-5 512,3.377478e-5 512,256.00001 l 0,255.99997 -256,0 -255.9999939693739,0 L 5.0437786e-6,256 z"
       id="path3345" />
    <path
       id="path3141"
       d="M 5.4e-6,255.67976 C 3e-7,240 24,240 64,240 c 40,0 64,0 64,16 0,16 -24,16 -64,16 C 24,272 2.9999999e-7,272 5.4e-6,255.67976 z"
       style="fill:#b3b3b3"
       inkscape:connector-curvature="0"
       sodipodi:nodetypes="cscsc" />
    <path
       id="path3141-6"
       d="M 384,255.67976 C 384,240 408,240 448,240 c 40,0 64,0 64,16 0,16 -24,16 -64,16 -40,0 -64,0 -64,-16.32024 z"
       style="fill:#989898"
       inkscape:connector-curvature="0"
       sodipodi:nodetypes="cscsc" />
    <path
       id="path3141-3"
       d="M 256.32024,5.0000015e-6 C 272,-4.9999985e-6 272,23.999995 272,63.999995 272,104 272,128 256,128 c -16,0 -16,-24 -16,-64.000005 0,-40 0,-63.9999999999985 16.32024,-63.9999899999985 z"
       style="fill:#ffffff"
       inkscape:connector-curvature="0"
       sodipodi:nodetypes="cscsc" />
    <path
       id="path3141-3-2"
       d="M 256.32024,384.00001 C 272,384 272,408 272,448 c 0,40.00001 0,64.00001 -16,64.00001 -16,0 -16,-24 -16,-64.00001 0,-40 0,-64 16.32024,-63.99999 z"
       style="fill:#989898"
       inkscape:connector-curvature="0"
       sodipodi:nodetypes="cscsc" />
    <path
       inkscape:connector-curvature="0"
       style="fill:none"
       d="M 34.297504,384.07179 -93.702487,162.36931 128.00001,34.369316 l 221.70251,-128 127.99999,221.702484 127.99998,221.70248 -221.7025,128 L 162.29749,605.77427 34.297504,384.07179 z"
       id="path3345-5" />
    <path
       inkscape:connector-curvature="0"
       style="fill:none"
       d="m 127.9282,477.70249 -221.702479,-127.99998 128,-221.7025 L 162.22573,-93.702491 383.92821,34.297494 605.63068,162.29748 477.63069,383.99998 349.63068,605.70248 127.9282,477.70249 z"
       id="path3345-5-9" />
    <path
       inkscape:connector-curvature="0"
       style="fill:none"
       d="m 34.225701,384 -127.99998,-221.70247 221.702499,-128 221.70251,-127.999999 127.99998,221.702479 127.99999,221.70248 -221.7025,128 L 162.2257,605.70248 34.225701,384 z"
       id="path3345-6" />
    <path
       id="path3141-32"
       d="m 34.065581,383.72266 c -7.83988,-13.57907 12.94473,-25.57907 47.58575,-45.57907 34.641009,-20 55.425619,-32 63.425619,-18.14359 8,13.85641 -12.78461,25.85641 -47.425619,45.85641 -34.64102,20 -55.42563,32 -63.58575,17.86625 z"
       style="fill:#999999"
       inkscape:connector-curvature="0"
       sodipodi:nodetypes="cscsc" />
    <path
       id="path3141-6-0"
       d="m 366.61934,191.72266 c -7.83988,-13.57907 12.94473,-25.57907 47.58574,-45.57907 34.64102,-20 55.42563,-32 63.42563,-18.14359 8,13.85641 -12.78461,25.85641 -47.42563,45.85641 -34.64101,20 -55.42562,32 -63.58574,17.86625 z"
       style="fill:#989898"
       inkscape:connector-curvature="0"
       sodipodi:nodetypes="cscsc" />
    <path
       id="path3141-3-6"
       d="m 128.20554,34.137386 c 13.57907,-7.839889 25.57907,12.944724 45.57907,47.585737 20,34.641017 32,55.425627 18.1436,63.425627 -13.85641,8 -25.85641,-12.78461 -45.85641,-47.425627 -20,-34.64101 -32,-55.425626 -17.86626,-63.585737 z"
       style="fill:#e6e6e6"
       inkscape:connector-curvature="0"
       sodipodi:nodetypes="cscsc" />
    <path
       id="path3141-3-2-1"
       d="m 320.20555,366.69114 c 13.57906,-7.83989 25.57906,12.94472 45.57906,47.58574 20.00001,34.64102 32.00001,55.42563 18.1436,63.42563 -13.85641,8 -25.85641,-12.78461 -45.85641,-47.42563 -20,-34.64102 -32,-55.42563 -17.86625,-63.58574 z"
       style="fill:#989898"
       inkscape:connector-curvature="0"
       sodipodi:nodetypes="cscsc" />
    <path
       inkscape:connector-curvature="0"
       style="fill:none"
       d="m 127.9641,477.76467 -221.702479,-127.99998 128,-221.70249 128.000009,-221.70251 221.70248,127.999988 221.70248,127.999982 -128,221.70251 -128,221.70249 L 127.9641,477.76467 z"
       id="path3345-5-5" />
    <path
       inkscape:connector-curvature="0"
       style="fill:none"
       d="m 255.86602,512.03589 -255.9999698,0 0,-255.99999 1e-5,-256.0000019 255.9999798,3e-6 255.99996,-1e-6 0,255.9999899 -10e-6,256 -255.99997,0 z"
       id="path3345-5-9-5" />
    <path
       inkscape:connector-curvature="0"
       style="fill:none"
       d="M 127.96411,477.7025 -93.73837,349.70251 34.261628,128.00002 162.26163,-93.702485 383.96411,34.297506 605.66659,162.29749 477.6666,383.99999 349.66659,605.70249 127.96411,477.7025 z"
       id="path3345-7" />
    <path
       id="path3141-65"
       d="m 127.68677,477.54238 c -13.57907,-7.83988 -1.57907,-28.62449 18.42093,-63.2655 19.99999,-34.64102 31.99999,-55.42563 45.8564,-47.42563 13.85641,8.00001 1.85641,28.78462 -18.14359,63.42563 -20,34.64102 -32,55.42563 -46.13374,47.2655 z"
       style="fill:#999999"
       inkscape:connector-curvature="0"
       sodipodi:nodetypes="cscsc" />
    <path
       id="path3141-6-6"
       d="M 319.68677,144.98863 C 306.1077,137.14875 318.1077,116.36414 338.10769,81.723122 358.1077,47.082104 370.1077,26.297494 383.9641,34.297497 c 13.85641,8.000003 1.85641,28.784613 -18.14359,63.425631 -20,34.641012 -32,55.425622 -46.13374,47.265502 z"
       style="fill:#989898"
       inkscape:connector-curvature="0"
       sodipodi:nodetypes="cscsc" />
    <path
       id="path3141-3-9"
       d="m 34.421731,127.72267 c 7.839866,-13.57908 28.624477,-1.57907 63.265494,18.42093 34.641015,20 55.425625,32 47.425635,45.8564 -8.00001,13.85641 -28.78462,1.85641 -63.425632,-18.14359 -34.641017,-20 -55.425628,-32 -47.265497,-46.13374 z"
       style="fill:#cccccc"
       inkscape:connector-curvature="0"
       sodipodi:nodetypes="cscsc" />
    <path
       id="path3141-3-2-3"
       d="m 366.97549,319.72267 c 7.83986,-13.57908 28.62447,-1.57908 63.26549,18.42093 34.64103,20 55.42564,32 47.42563,45.8564 -8,13.85641 -28.78461,1.85641 -63.42563,-18.14359 -34.64102,-20 -55.42562,-32 -47.26549,-46.13374 z"
       style="fill:#989898"
       inkscape:connector-curvature="0"
       sodipodi:nodetypes="cscsc" />
    <path
       inkscape:connector-curvature="0"
       style="fill:none"
       d="m 256.02627,512.03589 -255.99996396,10e-6 5.82e-6,-255.99999 1.75e-6,-256.00001332 255.99997639,4.2e-7 255.99997,-1.3e-6 0,256.0000042 0,255.99999 -255.99999,0 z"
       id="path3345-5-7" />
    <path
       inkscape:connector-curvature="0"
       style="fill:none"
       d="M 383.92819,477.76468 162.22572,605.76466 34.225723,384.06217 -93.774271,162.35966 127.92822,34.35967 349.63068,-93.64031 l 128,221.7025 127.99999,221.7025 -221.70248,127.99999 z"
       id="path3345-5-9-4" />
  </g>
</svg>
